{
  "asset": {
    "version": "2.0",
    "generator": "Sketchup glTF Exporter v1.2.6 by Centaur"
  },
  "scene": 0,
  "scenes": [
    {
      "nodes": [
        0
      ]
    }
  ],
  "samplers": [
    {
    }
  ],
  "nodes": [
    {
      "name": "root",
      "children": [
        1,
        2,
        3
      ]
    },
    {
      "name": "SW",
      "mesh": 0
    },
    {
      "name": "SW",
      "mesh": 1
    },
    {
      "name": "SW",
      "mesh": 2
    }
  ],
  "materials": [
    {
      "pbrMetallicRoughness": {
        "baseColorTexture": {
          "index": 0
        },
        "metallicFactor": 0.1,
        "roughnessFactor": 0.9
      },
      "name": "Brick Rough Dark"
    },
    {
      "pbrMetallicRoughness": {
        "baseColorTexture": {
          "index": 1
        },
        "metallicFactor": 0.1,
        "roughnessFactor": 0.9
      },
      "name": "Brick Antique 02"
    },
    {
      "pbrMetallicRoughness": {
        "baseColorFactor": [
          0.2176,
          0.2176,
          0.2176,
          1.0
        ],
        "metallicFactor": 0.1,
        "roughnessFactor": 0.9
      },
      "name": "default material",
      "doubleSided": true
    }
  ],
  "images": [
    {
      "bufferView": 0,
      "mimeType": "image/jpeg"
    },
    {
      "bufferView": 1,
      "mimeType": "image/jpeg"
    }
  ],
  "textures": [
    {
      "source": 0,
      "sampler": 0
    },
    {
      "source": 1,
      "sampler": 0
    }
  ],
  "meshes": [
    {
      "primitives": [
        {
          "attributes": {
            "POSITION": 2,
            "NORMAL": 3,
            "TEXCOORD_0": 4
          },
          "indices": 5,
          "mode": 4,
          "material": 0
        },
        {
          "attributes": {
            "POSITION": 2,
            "NORMAL": 3,
            "TEXCOORD_0": 4
          },
          "indices": 6,
          "mode": 4,
          "material": 1
        }
      ]
    },
    {
      "primitives": [
        {
          "attributes": {
            "POSITION": 2,
            "NORMAL": 3,
            "TEXCOORD_0": 4
          },
          "indices": 7,
          "mode": 4,
          "material": 0
        },
        {
          "attributes": {
            "POSITION": 2,
            "NORMAL": 3,
            "TEXCOORD_0": 4
          },
          "indices": 8,
          "mode": 4,
          "material": 1
        },
        {
          "attributes": {
            "POSITION": 0,
            "NORMAL": 1
          },
          "indices": 9,
          "mode": 4,
          "material": 2
        }
      ]
    },
    {
      "primitives": [
        {
          "attributes": {
            "POSITION": 2,
            "NORMAL": 3,
            "TEXCOORD_0": 4
          },
          "indices": 10,
          "mode": 4,
          "material": 0
        },
        {
          "attributes": {
            "POSITION": 2,
            "NORMAL": 3,
            "TEXCOORD_0": 4
          },
          "indices": 11,
          "mode": 4,
          "material": 1
        },
        {
          "attributes": {
            "POSITION": 0,
            "NORMAL": 1
          },
          "indices": 12,
          "mode": 4,
          "material": 2
        }
      ]
    }
  ],
  "accessors": [
    {
      "bufferView": 2,
      "componentType": 5126,
      "count": 320,
      "type": "VEC3",
      "min": [
        -1.9811999999999985,
        -1.9811999999999999,
        -1.9811999999999959
      ],
      "max": [
        1.6764000000000039,
        1.9812,
        1.9812000000000054
      ]
    },
    {
      "bufferView": 3,
      "componentType": 5126,
      "count": 320,
      "type": "VEC3",
      "min": [
        -1.0,
        -1.0,
        -1.0
      ],
      "max": [
        1.0,
        1.0,
        1.0
      ]
    },
    {
      "bufferView": 4,
      "componentType": 5126,
      "count": 946,
      "type": "VEC3",
      "min": [
        -1.9811999999999996,
        -1.9811999999999999,
        -1.9812000000000003
      ],
      "max": [
        1.9812000000000005,
        1.9812,
        1.9812000000000054
      ]
    },
    {
      "bufferView": 5,
      "componentType": 5126,
      "count": 946,
      "type": "VEC3",
      "min": [
        -1.0,
        -1.0,
        -1.0
      ],
      "max": [
        1.0,
        1.0,
        1.0
      ]
    },
    {
      "bufferView": 6,
      "componentType": 5126,
      "count": 946,
      "type": "VEC2",
      "min": [
        -149.88701627245376,
        -145.97658877201778
      ],
      "max": [
        138.0,
        93.97096320895037
      ]
    },
    {
      "bufferView": 8,
      "componentType": 5123,
      "count": 267,
      "type": "SCALAR"
    },
    {
      "bufferView": 8,
      "componentType": 5123,
      "count": 468,
      "type": "SCALAR",
      "byteOffset": 534
    },
    {
      "bufferView": 8,
      "componentType": 5123,
      "count": 267,
      "type": "SCALAR",
      "byteOffset": 1470
    },
    {
      "bufferView": 8,
      "componentType": 5123,
      "count": 153,
      "type": "SCALAR",
      "byteOffset": 2004
    },
    {
      "bufferView": 7,
      "componentType": 5123,
      "count": 315,
      "type": "SCALAR"
    },
    {
      "bufferView": 8,
      "componentType": 5123,
      "count": 267,
      "type": "SCALAR",
      "byteOffset": 2310
    },
    {
      "bufferView": 8,
      "componentType": 5123,
      "count": 153,
      "type": "SCALAR",
      "byteOffset": 2844
    },
    {
      "bufferView": 7,
      "componentType": 5123,
      "count": 315,
      "type": "SCALAR",
      "byteOffset": 630
    }
  ],
  "bufferViews": [
    {
      "buffer": 0,
      "byteLength": 8021
    },
    {
      "buffer": 0,
      "byteOffset": 8021,
      "byteLength": 59901
    },
    {
      "buffer": 0,
      "byteOffset": 67932,
      "byteLength": 3840,
      "target": 34962,
      "byteStride": 12
    },
    {
      "buffer": 0,
      "byteOffset": 71772,
      "byteLength": 3840,
      "target": 34962,
      "byteStride": 12
    },
    {
      "buffer": 0,
      "byteOffset": 75612,
      "byteLength": 11352,
      "target": 34962,
      "byteStride": 12
    },
    {
      "buffer": 0,
      "byteOffset": 86964,
      "byteLength": 11352,
      "target": 34962,
      "byteStride": 12
    },
    {
      "buffer": 0,
      "byteOffset": 98320,
      "byteLength": 7568,
      "target": 34962,
      "byteStride": 8
    },
    {
      "buffer": 0,
      "byteOffset": 105888,
      "byteLength": 1260,
      "target": 34963
    },
    {
      "buffer": 0,
      "byteOffset": 107148,
      "byteLength": 3150,
      "target": 34963
    }
  ],
  "buffers": [
    {
      "uri": "data:application/octet-stream;base64,",
      "byteLength": 110298
    }
  ]
}